<svg width="24" height="28" viewBox="0 0 24 28" fill="none" xmlns="http://www.w3.org/2000/svg">
<path d="M0 8.75V5.25C0 4.78587 0.180612 4.34075 0.502103 4.01256C0.823594 3.68437 1.25963 3.5 1.71429 3.5H3.42857V1.75C3.42857 1.28587 3.60918 0.840752 3.93067 0.512563C4.25216 0.184374 4.6882 0 5.14286 0C5.59751 0 6.03355 0.184374 6.35504 0.512563C6.67653 0.840752 6.85714 1.28587 6.85714 1.75V3.5H17.1429V1.75C17.1429 1.28587 17.3235 0.840752 17.645 0.512563C17.9665 0.184374 18.4025 0 18.8571 0C19.3118 0 19.7478 0.184374 20.0693 0.512563C20.3908 0.840752 20.5714 1.28587 20.5714 1.75V3.5H22.2857C22.7404 3.5 23.1764 3.68437 23.4979 4.01256C23.8194 4.34075 24 4.78587 24 5.25V8.75H0ZM0 10.5V26.25C0 26.7141 0.180612 27.1592 0.502103 27.4874C0.823594 27.8156 1.25963 28 1.71429 28H22.2857C22.7404 28 23.1764 27.8156 23.4979 27.4874C23.8194 27.1592 24 26.7141 24 26.25V10.5H0Z" fill="#F7B2AD"/>
</svg>
