<svg id="Layer_1" data-name="Layer 1" xmlns="http://www.w3.org/2000/svg" width="750" height="212" viewBox="0 0 750 212"><defs><style>.cls-1{fill:none;}.cls-2{fill:#333;}.cls-3{fill:#1389fd;}</style></defs><title>stackblitz-logo-freelogovectors.net_</title><rect class="cls-1" x="23.58" y="20.87" width="702.84" height="170.26"/><path class="cls-2" d="M231.12,446.35q-13.26,0-22.59-6a31.87,31.87,0,0,1-12.87-16.55l13-7.62q5.52,15.5,22.85,15.5,8.53,0,12.74-3.28a10.71,10.71,0,0,0,4.34-8.8A9.46,9.46,0,0,0,244,411q-4.59-3-16.28-6.57a108.78,108.78,0,0,1-10.64-3.67,54.06,54.06,0,0,1-8.67-4.73,20.18,20.18,0,0,1-6.7-7.75,24.34,24.34,0,0,1-2.23-10.77q0-12.21,8.67-19.3A31.54,31.54,0,0,1,229,351a34.57,34.57,0,0,1,19.3,5.39,35.09,35.09,0,0,1,12.74,14.84l-12.74,7.35q-5.77-12.87-19.3-12.87-6.57,0-10.51,3.15a9.9,9.9,0,0,0-3.94,8.28,9.74,9.74,0,0,0,3.94,8.14q4.08,2.89,14.58,6.17,5.25,1.71,7.62,2.63c1.66.53,3.94,1.4,6.83,2.63a26.77,26.77,0,0,1,6.69,3.67A45.4,45.4,0,0,1,259,405a15.4,15.4,0,0,1,3.68,6.3,28.26,28.26,0,0,1,1.05,8q0,12.48-9.06,19.84T231.12,446.35Z" transform="translate(-25 -294)"/><path class="cls-2" d="M307.22,392.64H290.93v31.51q0,4.08,1.84,5.91a8.59,8.59,0,0,0,5.38,2q3.69.14,9.07-.13v12.74q-16.29,2-23.38-2.76t-7.09-17.73V392.64H264.66V379h12.09V364.79l14.18-4.2V379h16.29Z" transform="translate(-25 -294)"/><path class="cls-2" d="M366.11,379h14.18v65.66H366.11v-9.45q-8,11.16-23,11.16a30.91,30.91,0,0,1-23.12-10,34.39,34.39,0,0,1-9.58-24.56q0-14.58,9.58-24.56a30.91,30.91,0,0,1,23.12-10q15,0,23,11Zm-35.59,47.93a21.59,21.59,0,0,0,29.68,0,20.73,20.73,0,0,0,5.91-15.1,20.29,20.29,0,0,0-5.91-15,21.25,21.25,0,0,0-29.68,0,20.29,20.29,0,0,0-5.91,15A20.73,20.73,0,0,0,330.52,426.91Z" transform="translate(-25 -294)"/><path class="cls-2" d="M424.54,446.35q-14.85,0-24.83-10a33.64,33.64,0,0,1-9.85-24.56q0-14.71,9.85-24.56t24.83-10a34,34,0,0,1,17.46,4.6,29.66,29.66,0,0,1,11.82,12.34l-12.21,7.09a16.35,16.35,0,0,0-6.83-7.35,19.35,19.35,0,0,0-10.38-2.76,19.8,19.8,0,0,0-14.57,5.91,21.61,21.61,0,0,0,0,29.42,20.91,20.91,0,0,0,24.95,3.15,18,18,0,0,0,7.09-7.35l12.21,7A31.15,31.15,0,0,1,442,441.75,34,34,0,0,1,424.54,446.35Z" transform="translate(-25 -294)"/><path class="cls-2" d="M519.1,444.64H502.16L475.24,414.3v30.34H461.05V352.71h14.19V408l25.47-29h17.34l-28.89,32.17Z" transform="translate(-25 -294)"/><path class="cls-2" d="M580.38,397a23.27,23.27,0,0,1,12.88,21.41,24.66,24.66,0,0,1-8,18.78,27.63,27.63,0,0,1-19.57,7.48h-39.4V352.71h36.51a26.57,26.57,0,0,1,19,7.36,23.54,23.54,0,0,1,7.88,18.12Q589.71,390.15,580.38,397Zm-17.59-30.08H541.38v24.17h21.41a11.4,11.4,0,0,0,8.4-3.42,12,12,0,0,0,3.42-8.66,11.58,11.58,0,0,0-3.42-8.54A11.22,11.22,0,0,0,562.79,366.89Zm2.89,63.57a11.75,11.75,0,0,0,8.8-3.68,12.75,12.75,0,0,0,3.67-9.19,12.31,12.31,0,0,0-3.67-9.06,11.55,11.55,0,0,0-8.8-3.81h-24.3v25.74Z" transform="translate(-25 -294)"/><path class="cls-2" d="M602.23,444.64V348.77h14.19v95.87Z" transform="translate(-25 -294)"/><path class="cls-2" d="M643,366.5a8.58,8.58,0,0,1-6.3,2.63,9,9,0,0,1-9.06-9.06,9.2,9.2,0,0,1,9.06-9.07,9.2,9.2,0,0,1,9.06,9.07A8.81,8.81,0,0,1,643,366.5ZM629.6,444.64V379h14.18v65.66Z" transform="translate(-25 -294)"/><path class="cls-2" d="M693.61,392.64H677.33v31.51q0,4.08,1.83,5.91a8.62,8.62,0,0,0,5.39,2q3.68.14,9.06-.13v12.74q-16.29,2-23.38-2.76t-7.09-17.73V392.64H651.06V379h12.08V364.79l14.19-4.2V379h16.28Z" transform="translate(-25 -294)"/><path class="cls-2" d="M719.49,431.25h31.92v13.39H700.19v-9.45l30.73-42.82H701.5V379h48.59v9.45Z" transform="translate(-25 -294)"/><path class="cls-3" d="M48.58,414.62h49.9L69.41,485.13l95.44-100.35H114.73l28.84-69.91Z" transform="translate(-25 -294)"/><rect class="cls-1" width="750" height="212"/></svg>